<svg xmlns="http://www.w3.org/2000/svg" width="560" height="80" viewBox="0 0 560 80">
  <defs>
    <style>
      .cls-1 {
        fill: #0090ff;
        fill-rule: evenodd;
      }

      .cls-2 {
        fill: #ff9a09;
      }

      .cls-3 {
        fill: #ee4b2b;
      }
    </style>
  </defs>
  <path id="_torch" data-name="            torch" class="cls-3" d="M337.105,30.525a2.154,2.154,0,0,0,.684-1.44,2.057,2.057,0,0,0-.5-1.548,2.108,2.108,0,0,0-1.512-.756l-11.808-.72q0.072-1.655.144-3.2t0.216-2.988a2.057,2.057,0,0,0-.5-1.548,2.108,2.108,0,0,0-1.512-.756,2.061,2.061,0,0,0-1.548.5,2.108,2.108,0,0,0-.756,1.512q-0.144,1.441-.216,3.024t-0.144,3.24l-6.48-.432a1.949,1.949,0,0,0-1.512.5,2.454,2.454,0,0,0-.792,1.512,1.888,1.888,0,0,0,.54,1.512,2.29,2.29,0,0,0,1.548.72l6.552,0.432q-0.144,4.177-.108,8.5t0.18,8.568q0.144,3.24.288,6.012t0.36,4.86q0.217,1.728.4,2.808a13.264,13.264,0,0,0,.4,1.764,3.765,3.765,0,0,0,.5,1.08,2.217,2.217,0,0,0,.648.612,4.284,4.284,0,0,0,1.188.5q0.756,0.216,1.548.36t1.476,0.252a7.257,7.257,0,0,0,1.044.108,6.816,6.816,0,0,0,.972.072h2.2a5.9,5.9,0,0,0,3.1-1.08,2,2,0,0,0,.793-1.44,2.177,2.177,0,0,0-.5-1.584,2.111,2.111,0,0,0-1.4-.828,1.992,1.992,0,0,0-1.548.468,3.975,3.975,0,0,1-.936.144,13.3,13.3,0,0,1-2.3-.072q-0.936-.071-1.62-0.18t-1.188-.18a46.263,46.263,0,0,1-.612-4.932q-0.324-3.635-.468-10.188-0.144-3.815-.144-7.7t0.072-7.632l11.664,0.72h0.144A2.073,2.073,0,0,0,337.105,30.525Zm27.18,35.064q2.086-.143,4.068-0.4a39.032,39.032,0,0,0,3.852-.684,30.781,30.781,0,0,0,3.78-1.152,15.144,15.144,0,0,0,2.988-1.512,9.7,9.7,0,0,0,3.708-4.9,23.253,23.253,0,0,0,1.26-8.208,43.966,43.966,0,0,0-.468-6.264,39.05,39.05,0,0,0-1.4-6.192,23.2,23.2,0,0,0-2.628-6.012,9.671,9.671,0,0,0-2.34-2.556,13.833,13.833,0,0,0-5.328-1.728q-1.658-.287-3.42-0.432a30.6,30.6,0,0,0-3.636-.072q-2.017,0-3.888.18a30.4,30.4,0,0,0-3.529.54,14.789,14.789,0,0,0-6.119,2.592,9.335,9.335,0,0,0-2.628,3.348,22.313,22.313,0,0,0-1.656,4.68,37.089,37.089,0,0,0-.864,5.364,45.687,45.687,0,0,0-.18,5.4q0.142,2.521.395,4.824a24.214,24.214,0,0,0,.828,4.248q1.44,4.825,3.745,6.48a15.046,15.046,0,0,0,5.9,2.016,35.177,35.177,0,0,0,5.76.432h1.8ZM371.3,30.273a10.3,10.3,0,0,1,3.421,1.044,5.937,5.937,0,0,1,1.476,1.944,20.885,20.885,0,0,1,1.692,4.248,34.4,34.4,0,0,1,1.3,5.58,38.572,38.572,0,0,1,.433,5.652,20.26,20.26,0,0,1-.792,6.084,6.11,6.11,0,0,1-2.232,3.42,17.191,17.191,0,0,1-5.22,2.052,35.551,35.551,0,0,1-7.237.972q-1.44.073-3.06,0t-3.095-.252a16.567,16.567,0,0,1-2.7-.54,6.666,6.666,0,0,1-1.944-.864q-1.08-.791-2.052-4a31.886,31.886,0,0,1-1.116-8.172,38.254,38.254,0,0,1,.18-5,33.972,33.972,0,0,1,.756-4.572q1.007-4.247,2.807-5.688a10.457,10.457,0,0,1,4.249-1.692,35.1,35.1,0,0,1,6.552-.684h0.576A33.814,33.814,0,0,1,371.3,30.273Zm23.832,36.144a2.1,2.1,0,0,0,.612-1.548q0.143-5.832.18-11.736t-0.036-11.88a17.507,17.507,0,0,1,2.088-4.32,16.722,16.722,0,0,1,5.616-5.9,9.764,9.764,0,0,1,3.672-1.224,7.488,7.488,0,0,1,3.456.36,1.829,1.829,0,0,0,1.62-.036,2.388,2.388,0,0,0,1.188-1.188,1.912,1.912,0,0,0-.036-1.656,2.424,2.424,0,0,0-1.188-1.152,11.015,11.015,0,0,0-5.4-.684,13.823,13.823,0,0,0-5.472,1.836,19.388,19.388,0,0,0-5.688,5.256q-0.073-.864-0.072-1.764V29.013a2.3,2.3,0,0,0-.72-1.548,1.893,1.893,0,0,0-1.512-.54,2.035,2.035,0,0,0-1.548.648,1.978,1.978,0,0,0-.54,1.584q0.216,8.929.252,17.82T391.5,64.8a1.871,1.871,0,0,0,.54,1.548,2.37,2.37,0,0,0,1.548.684h0.072A2.016,2.016,0,0,0,395.136,66.417ZM439.559,65.3q1.116-.143,2.268-0.36a20.006,20.006,0,0,0,7.992-3.672,15.488,15.488,0,0,0,5.256-7.2,1.763,1.763,0,0,0-.072-1.62,2.221,2.221,0,0,0-1.224-1.116,1.91,1.91,0,0,0-1.656.036,2.377,2.377,0,0,0-1.152,1.26,11.9,11.9,0,0,1-3.816,5.256,14.247,14.247,0,0,1-2.88,1.728,15.685,15.685,0,0,1-3.312,1.08,16.213,16.213,0,0,1-7.668-.108,12.958,12.958,0,0,1-6.156-3.492,9.554,9.554,0,0,1-2.376-4.608,20.137,20.137,0,0,1-.36-6.7,23.679,23.679,0,0,1,.756-4.608,34.985,34.985,0,0,1,1.476-4.392,23.648,23.648,0,0,1,2.016-3.564,9.694,9.694,0,0,1,2.3-2.412,15.03,15.03,0,0,1,5.832-2.556,11.934,11.934,0,0,1,5.9.252,9.687,9.687,0,0,1,2.556,1.08,11.637,11.637,0,0,1,2.2,1.728,14.484,14.484,0,0,1,3.6,5.688,2.076,2.076,0,0,0,1.116,1.188,1.829,1.829,0,0,0,1.62.036,2.068,2.068,0,0,0,1.26-1.116,1.833,1.833,0,0,0,.036-1.62,19.055,19.055,0,0,0-4.428-7.128,16.549,16.549,0,0,0-6.66-4.032,15.116,15.116,0,0,0-3.924-.648,16.608,16.608,0,0,0-4.068.36,18.174,18.174,0,0,0-7.56,3.312,15.02,15.02,0,0,0-3.06,3.1,22.745,22.745,0,0,0-2.484,4.248,34.633,34.633,0,0,0-1.836,5.112,29.269,29.269,0,0,0-.972,5.616,25.578,25.578,0,0,0,.648,8.532,13.725,13.725,0,0,0,3.312,6.156,16.969,16.969,0,0,0,5.94,3.96,19.485,19.485,0,0,0,7.308,1.368A17.562,17.562,0,0,0,439.559,65.3Zm56.628-.072a2.246,2.246,0,0,0,.72-1.368q0.5-3.527.756-8.244t0.108-9.108q-0.074-11.591-2.448-15.624a8.146,8.146,0,0,0-3.6-3.024,17.086,17.086,0,0,0-5.832-1.44,27.3,27.3,0,0,0-5.364.252,22.937,22.937,0,0,0-5.292,1.4,27.463,27.463,0,0,0-5.832,3.168q0-4.32-.108-8.568t-0.252-8.568a2.23,2.23,0,0,0-.72-1.476,2.136,2.136,0,0,0-1.512-.612,2.159,2.159,0,0,0-1.512.72,2.3,2.3,0,0,0-.576,1.584,395.574,395.574,0,0,1-.864,48.888,1.986,1.986,0,0,0,.54,1.548,2.158,2.158,0,0,0,1.476.756h0.144a2.075,2.075,0,0,0,1.476-.576,2.163,2.163,0,0,0,.684-1.44q0.5-6.551.792-13.1T469.4,37.149a17.458,17.458,0,0,1,3.564-3.1A20.63,20.63,0,0,1,485.6,30.741a12.409,12.409,0,0,1,3.78.792,4.392,4.392,0,0,1,2.2,1.584,14.993,14.993,0,0,1,1.3,4.9,69.207,69.207,0,0,1,.576,8.568q0.142,4.32-.108,8.82t-0.684,7.884a2.005,2.005,0,0,0,.4,1.62,2.229,2.229,0,0,0,1.476.828h0.288A2.011,2.011,0,0,0,496.187,65.229Z"/>
  <path id="_4" data-name="          4" class="cls-2" d="M296.138,65.589a2.154,2.154,0,0,0,.684-1.44q0.288-4.1.54-8.64t0.468-9.288l4.464-.216a2.038,2.038,0,0,0,1.548-.648,2.133,2.133,0,0,0,.612-1.512,2.3,2.3,0,0,0-.72-1.548,2.136,2.136,0,0,0-1.512-.612l-4.248.216q0.36-7.2.468-13.86t0.036-11.556a2.04,2.04,0,0,0-.648-1.548,2.136,2.136,0,0,0-1.512-.612,2.375,2.375,0,0,0-1.548.684,2.1,2.1,0,0,0-.612,1.548q0.072,4.9-.036,11.556t-0.468,13.86q-1.224.073-2.412,0.108t-2.412.036l-12.672.36q0.36-7.776,1.116-14.364t1.548-12.492a2,2,0,0,0-.4-1.584,2.146,2.146,0,0,0-1.4-.864,2.011,2.011,0,0,0-1.62.4,2.238,2.238,0,0,0-.828,1.476q-0.864,6.193-1.62,13.14t-1.116,15.228a3.17,3.17,0,0,0,.72,2.3,2.622,2.622,0,0,0,1.44.972,6.078,6.078,0,0,0,1.3.18h0.288q2.52-.143,6.084-0.216t7.308-.216q1.152,0,2.268-.036t2.268-.036q-0.216,4.609-.468,9.072t-0.54,8.424a1.993,1.993,0,0,0,.54,1.548,2.16,2.16,0,0,0,1.476.756h0.144A2.073,2.073,0,0,0,296.138,65.589Z"/>
  <path id="keras" class="cls-1" d="M94.8,65.373a2.087,2.087,0,0,0-.072-3.024l-16.632-15.7,17.28-16.992a2.111,2.111,0,0,0,.648-1.548,2,2,0,0,0-.576-1.476,2.113,2.113,0,0,0-1.548-.648,2.252,2.252,0,0,0-1.548.576L73.483,45.141a2.156,2.156,0,0,0-.648,1.584,1.8,1.8,0,0,0,.648,1.512l18.288,17.28a2.3,2.3,0,0,0,1.44.576,2.051,2.051,0,0,0,1.584-.72h0Zm-27.108.144a2.489,2.489,0,0,0,.756-1.44q0.935-12.312,1.152-24.66t-0.36-24.732a2.04,2.04,0,0,0-.648-1.548A1.99,1.99,0,0,0,67,12.6a2.225,2.225,0,0,0-1.476.72,1.885,1.885,0,0,0-.54,1.512,416.883,416.883,0,0,1-.864,48.96,1.688,1.688,0,0,0,.468,1.512,2.556,2.556,0,0,0,1.476.792h0.216A1.988,1.988,0,0,0,67.687,65.517Zm56.195,0.5q3.24,0,6.516-.324a48.2,48.2,0,0,0,6.084-.972,1.863,1.863,0,0,0,1.332-.9,2.274,2.274,0,0,0,.324-1.62,2.144,2.144,0,0,0-.972-1.4,2.029,2.029,0,0,0-1.62-.252,45.76,45.76,0,0,1-5.616.864q-3.024.289-6.048,0.288H123.81a43.38,43.38,0,0,1-5.328-.288,12.087,12.087,0,0,1-3.528-.864q-1.872-.935-2.52-5.544-0.216-1.583-.324-3.456a31.372,31.372,0,0,1,.036-3.96q3.456,0.216,6.984.36t7.056,0.036a64.718,64.718,0,0,0,6.912-.576,42.365,42.365,0,0,0,6.48-1.4,2.452,2.452,0,0,0,.72-0.36,6.683,6.683,0,0,0,2.124-3.348,13.334,13.334,0,0,0,.468-5,17.31,17.31,0,0,0-.54-2.952,16.6,16.6,0,0,0-.972-2.664,10.072,10.072,0,0,0-4.1-4.464,15.243,15.243,0,0,0-4.392-1.332,46.28,46.28,0,0,0-6.336-.684,28.664,28.664,0,0,0-8.5.648,16.719,16.719,0,0,0-4.608,1.872q-1.512.937-2.664,4.032a25.948,25.948,0,0,0-.936,2.736Q109.41,36,109.05,37.8a52.1,52.1,0,0,0-.864,5.256q-0.576-.071-1.08-0.108t-1.08-.036a2.052,2.052,0,0,0-1.584.5,2.164,2.164,0,0,0-.72,1.512,1.983,1.983,0,0,0,.54,1.584,2.222,2.222,0,0,0,1.476.72q0.576,0,1.08.036c0.336,0.025.672,0.036,1.008,0.036q-0.072,2.881,0,5.472,0.648,9.5,5.256,11.664a11.308,11.308,0,0,0,2.412.792q1.332,0.289,2.772.468t2.88,0.252q1.44,0.073,2.664.072h0.072ZM112.938,40.389a40.311,40.311,0,0,1,1.62-6.516,10.205,10.205,0,0,1,1.188-2.556,13.039,13.039,0,0,1,4.392-1.512,28,28,0,0,1,6.192-.36,35.7,35.7,0,0,1,5.76.648,12.037,12.037,0,0,1,3.1.936,5.673,5.673,0,0,1,2.3,2.52,10.174,10.174,0,0,1,1.08,4.1,9.2,9.2,0,0,1-.108,2.772,3.852,3.852,0,0,1-.612,1.548,40.578,40.578,0,0,1-5.9,1.188q-3.1.4-6.336,0.5t-6.552-.036q-3.312-.143-6.552-0.36Zm42.155,26.028a2.1,2.1,0,0,0,.612-1.548q0.144-5.832.18-11.736t-0.036-11.88a17.543,17.543,0,0,1,2.088-4.32,16.722,16.722,0,0,1,5.616-5.9,9.775,9.775,0,0,1,3.672-1.224,7.485,7.485,0,0,1,3.456.36,1.829,1.829,0,0,0,1.62-.036,2.38,2.38,0,0,0,1.188-1.188,1.906,1.906,0,0,0-.036-1.656,2.416,2.416,0,0,0-1.188-1.152,11.012,11.012,0,0,0-5.4-.684,13.828,13.828,0,0,0-5.472,1.836,19.4,19.4,0,0,0-5.688,5.256q-0.072-.864-0.072-1.764V29.013a2.3,2.3,0,0,0-.72-1.548,1.893,1.893,0,0,0-1.512-.54,2.038,2.038,0,0,0-1.548.648,1.985,1.985,0,0,0-.54,1.584q0.216,8.929.252,17.82T151.457,64.8a1.878,1.878,0,0,0,.54,1.548,2.374,2.374,0,0,0,1.548.684h0.072A2.014,2.014,0,0,0,155.093,66.417Zm47.556-1.26a29.664,29.664,0,0,0,7.848-3.672q0.576-.359,1.116-0.756t1.116-.828v4.32a2.133,2.133,0,0,0,.612,1.512,2.036,2.036,0,0,0,1.548.648,2.215,2.215,0,0,0,2.16-2.16q0-18.144,1.08-36.216a1.991,1.991,0,0,0-.54-1.584,2.227,2.227,0,0,0-1.476-.72,1.989,1.989,0,0,0-1.584.54,2.221,2.221,0,0,0-.72,1.476q-0.145,1.585-.216,3.132t-0.144,3.132a9.841,9.841,0,0,0-.9-1.044q-0.47-.467-0.972-0.972a20.178,20.178,0,0,0-7.344-4.248,17.835,17.835,0,0,0-7.92-.648,17.325,17.325,0,0,0-7.272,2.808,15.176,15.176,0,0,0-3.492,3.24,24.7,24.7,0,0,0-2.916,4.68,26.709,26.709,0,0,0-1.908,5.292A29.333,29.333,0,0,0,179.9,48.6a20.091,20.091,0,0,0,.936,7.6,11.908,11.908,0,0,0,3.672,5.436,18.681,18.681,0,0,0,12.1,4.464,20.346,20.346,0,0,0,6.048-.936h0Zm10.3-17.28q-0.072,3.024-.144,6.048a27.126,27.126,0,0,1-5.364,4.392,23.467,23.467,0,0,1-6.012,2.736q-8.064,2.305-14.112-2.808a5.673,5.673,0,0,1-1.08-1.08,8.5,8.5,0,0,1-1.08-1.836,11.6,11.6,0,0,1-.792-2.736,15.75,15.75,0,0,1-.144-3.78,26.175,26.175,0,0,1,.72-4.644,24.359,24.359,0,0,1,1.584-4.5,20.625,20.625,0,0,1,2.268-3.708,10.507,10.507,0,0,1,2.628-2.484,13.409,13.409,0,0,1,5.508-2.088,13.56,13.56,0,0,1,6.012.5,18.1,18.1,0,0,1,3.06,1.3,11.56,11.56,0,0,1,2.7,2.016,16.932,16.932,0,0,1,4.176,6.12,0.741,0.741,0,0,0,.288.5Q213.015,44.853,212.945,47.877Zm34.524,18.216q1.331-.143,2.772-0.432A9.8,9.8,0,0,0,254.993,63a9.453,9.453,0,0,0,2.52-4.32,8.52,8.52,0,0,0,0-4.9,10.071,10.071,0,0,0-2.592-4.32,12.624,12.624,0,0,0-2.808-2.016,16.274,16.274,0,0,0-3.2-1.26,32.427,32.427,0,0,0-3.492-.756q-1.8-.287-3.6-0.5-3.314-.432-6.192-1.08a8.66,8.66,0,0,1-4.608-2.52,3.9,3.9,0,0,1-1.188-2.16,5.89,5.89,0,0,1-.036-1.944,8.269,8.269,0,0,1,1.4-3.42,8.776,8.776,0,0,1,2.844-2.628,16.715,16.715,0,0,1,3.384-1.44,17.729,17.729,0,0,1,4.032-.72,30.823,30.823,0,0,1,8.568.5,27.645,27.645,0,0,1,3.2.828,8.71,8.71,0,0,1,2.916,1.548,2.869,2.869,0,0,1,1.08,1.728,1.727,1.727,0,0,1-.288,1.44,2.358,2.358,0,0,0-.54,1.62,1.9,1.9,0,0,0,.756,1.476,1.99,1.99,0,0,0,1.548.5,2.127,2.127,0,0,0,1.476-.72,5.633,5.633,0,0,0,1.3-5.04,7.461,7.461,0,0,0-2.52-4.248,10.591,10.591,0,0,0-4-2.3,37.172,37.172,0,0,0-4.14-1.08,34.387,34.387,0,0,0-5-.612,44.115,44.115,0,0,0-4.716.036,20.728,20.728,0,0,0-9.288,2.808,13.684,13.684,0,0,0-4.212,3.924,11.463,11.463,0,0,0-2.052,5.148,8.982,8.982,0,0,0,2.376,7.776,10.744,10.744,0,0,0,2.772,2.124,18.782,18.782,0,0,0,3.276,1.368,24.727,24.727,0,0,0,3.564.828q1.836,0.289,3.708.5,3.24,0.432,6.048,1.044a9.377,9.377,0,0,1,4.608,2.34,5.2,5.2,0,0,1,1.476,2.34,4.44,4.44,0,0,1,.036,2.556,6.47,6.47,0,0,1-1.4,2.412,4.838,4.838,0,0,1-2.628,1.548,22.915,22.915,0,0,1-6.228.432,18.094,18.094,0,0,1-5.8-1.368,12.074,12.074,0,0,1-3.456-2.016,4.088,4.088,0,0,1-1.152-1.368,2.3,2.3,0,0,0-.936-1.368,2.077,2.077,0,0,0-1.584-.36,1.905,1.905,0,0,0-1.4.9,2.264,2.264,0,0,0-.324,1.62,5.422,5.422,0,0,0,1.584,2.952,14.51,14.51,0,0,0,2.3,1.944,25.4,25.4,0,0,0,2.988,1.548,22.662,22.662,0,0,0,4.5,1.4,17.324,17.324,0,0,0,2.412.4q1.188,0.108,2.412.108A25.616,25.616,0,0,0,247.469,66.093Z"/>
</svg>
